<?xml version="1.0" standalone="no"?>
<!DOCTYPE svg PUBLIC "-//W3C//DTD SVG 20010904//EN"
 "http://www.w3.org/TR/2001/REC-SVG-20010904/DTD/svg10.dtd">
<svg version="1.0" xmlns="http://www.w3.org/2000/svg"
 width="700.000000pt" height="700.000000pt" viewBox="0 0 700.000000 700.000000"
 preserveAspectRatio="xMidYMid meet">
<metadata>
Created by potrace 1.11, written by Peter Selinger 2001-2013
</metadata>
<g transform="translate(0.000000,700.000000) scale(0.100000,-0.100000)"
fill="#000000" stroke="none">
<path d="M0 3500 l0 -3500 3500 0 3500 0 0 3500 0 3500 -3500 0 -3500 0 0
-3500z m1888 -7 l2 -1993 -110 0 -110 0 0 1995 0 1996 108 -3 107 -3 3 -1992z
m682 772 l0 -1225 -105 0 -105 0 0 1225 0 1225 105 0 105 0 0 -1225z m690
-770 l0 -1995 -105 0 -105 0 0 1995 0 1995 105 0 105 0 0 -1995z m690 0 l0
-1995 -105 0 -105 0 0 1995 0 1995 105 0 105 0 0 -1995z m690 0 l0 -1995 -105
0 -105 0 0 1995 0 1995 105 0 105 0 0 -1995z m690 770 l0 -1225 -110 0 -110 0
0 1218 c0 670 3 1222 7 1225 3 4 53 7 110 7 l103 0 0 -1225z"/>
</g>
</svg>
