<svg xmlns="http://www.w3.org/2000/svg" viewBox="0 0 374 182">
  <defs>
    <style>
      .mark-body{fill:#1e3567;}
      .mark-line{fill:#fff;}
      .logo-text{fill:#6e6f71;}
    </style>
  </defs>

  <title>Metro Ideas Project logo</title>

  <polygon class="mark-body" points="86.32 0 74.87 9.67 0 9.67 0 182 172.64 182 172.64 9.67 97.77 9.67 86.32 0"/>
  <rect class="mark-line" x="41.19" y="51.16" width="5.32" height="98.48"/>
  <rect class="mark-line" x="58.18" y="51.16" width="5.32" height="60.46"/>
  <rect class="mark-line" x="75.17" y="51.16" width="5.32" height="98.48"/>
  <rect class="mark-line" x="92.16" y="51.16" width="5.32" height="98.48"/>
  <rect class="mark-line" x="109.15" y="51.16" width="5.32" height="98.48"/>
  <rect class="mark-line" x="126.14" y="51.16" width="5.32" height="60.46"/>

  <polygon class="logo-text" points="230.5 71.05 230.5 48.9 230.43 48.9 220.8 70.97 218.65 70.97 208.94 48.9 208.86 48.9 208.86 71.05 205.3 71.05 205.3 44.01 210.58 44.01 219.86 65.31 229.1 44.01 234.3 44.01 234.3 71.05 230.5 71.05"/>

  <polygon class="logo-text" points="244.4 71.05 244.4 44.01 259.27 44.01 258.84 46.98 248.24 46.98 248.24 55.77 257.36 55.77 257.36 58.74 248.24 58.74 248.24 68.08 259.63 68.08 259.2 71.05 244.4 71.05"/>

  <polygon class="logo-text" points="277.51 47.06 277.51 71.05 273.72 71.05 273.72 47.06 265.97 47.06 265.97 44.01 285.3 44.01 284.87 47.06 277.51 47.06"/>

  <path class="logo-text" d="M517.36,286l-3.21-6.48a12.72,12.72,0,0,0-3.05-4.26,6,6,0,0,0-3.83-1.21h-1.41v12H502V259h7a10.13,10.13,0,0,1,6.44,1.89,6.24,6.24,0,0,1,2.41,5.18,6.5,6.5,0,0,1-1.68,4.39,7.24,7.24,0,0,1-4.34,2.4V273a8.07,8.07,0,0,1,3.23,1.86,15.1,15.1,0,0,1,3,4.32l3.52,6.91h-4.15ZM507.1,262h-1.25v9.18h1.25a9.06,9.06,0,0,0,4.85-1.09,4.05,4.05,0,0,0,1.72-3.71,3.7,3.7,0,0,0-1.57-3.38,9.64,9.64,0,0,0-5-1" transform="translate(-209 -215)"/>

  <path class="logo-text" d="M530.74,282.46a14.53,14.53,0,0,1-3.52-9.92,14.28,14.28,0,0,1,3.58-9.94,13.48,13.48,0,0,1,19-.06,14.18,14.18,0,0,1,3.6,10,14.49,14.49,0,0,1-3.54,9.92,13.41,13.41,0,0,1-19.16,0m3-17.76q-2.45,2.83-2.45,7.87t2.51,7.81a9.16,9.16,0,0,0,13.19,0q2.39-2.79,2.39-8.11a10.83,10.83,0,0,0-2.58-7.62,8.4,8.4,0,0,0-6.46-2.81,8.27,8.27,0,0,0-6.6,2.83" transform="translate(-209 -215)"/>
  <rect class="logo-text" x="205.3" y="90.9" width="3.84" height="27.04"/>

  <path class="logo-text" d="M436.61,332.94h-8.34v-27h8.3q6.54,0,10.39,3.62t3.86,9.79q0,6.45-3.8,10t-10.41,3.59m-0.78-24.07h-3.72V330h3q6,0,8.81-2.56t2.86-7.83q0-5.39-2.94-8a11.45,11.45,0,0,0-8-2.66" transform="translate(-209 -215)"/>

  <polygon class="logo-text" points="250.86 117.94 250.86 90.9 265.73 90.9 265.3 93.87 254.69 93.87 254.69 102.66 263.81 102.66 263.81 105.63 254.69 105.63 254.69 114.97 266.08 114.97 265.65 117.94 250.86 117.94"/>

  <path class="logo-text" d="M491.17,305.9h3.25l9.94,27h-4l-2.9-8h-9.87l-2.86,8H481Zm1.45,4.88h0l-4,11.21h7.91Z" transform="translate(-209 -215)"/>

  <path class="logo-text" d="M511.76,328.44a21.9,21.9,0,0,0,3,1.27,10.61,10.61,0,0,0,3.4.53,5.15,5.15,0,0,0,3.13-.92,3.37,3.37,0,0,0,1.25-2.91,4.07,4.07,0,0,0-1.59-3.18,27.24,27.24,0,0,0-4.54-2.95,13.68,13.68,0,0,1-4.42-3.52,7.06,7.06,0,0,1-1.47-4.42,6,6,0,0,1,2.35-5,9.36,9.36,0,0,1,6-1.86,15.5,15.5,0,0,1,3.44.37,16.62,16.62,0,0,1,3.13,1l-1.17,3a18,18,0,0,0-2.56-.92,9.87,9.87,0,0,0-2.6-.37,5.7,5.7,0,0,0-3.46.9,3.12,3.12,0,0,0-1.19,2.66q0,2.62,4.13,4.79a25.56,25.56,0,0,1,6,4,6.71,6.71,0,0,1,1.88,5,6.82,6.82,0,0,1-2.29,5.33,8.61,8.61,0,0,1-6,2.05,17.36,17.36,0,0,1-4.11-.45,15.48,15.48,0,0,1-3.6-1.39Z" transform="translate(-209 -215)"/>

  <path class="logo-text" d="M421,369.17a13.23,13.23,0,0,1-1.55-.29l-1.37-.31v11.25H414.3v-27h6.77q4.77,0,7.22,2.11a7.38,7.38,0,0,1,2.45,5.9,8.47,8.47,0,0,1-2.31,6,7.66,7.66,0,0,1-5.83,2.46,12,12,0,0,1-1.55-.1m-0.76-13.42h-2.15v9.92a11,11,0,0,0,1.8.45,11.7,11.7,0,0,0,1.61.1,4.78,4.78,0,0,0,5.13-5.12,4.92,4.92,0,0,0-1.6-4,7.43,7.43,0,0,0-4.78-1.31" transform="translate(-209 -215)"/>

  <path class="logo-text" d="M454.15,379.82l-3.21-6.48a12.72,12.72,0,0,0-3.05-4.26,6,6,0,0,0-3.83-1.21h-1.41v12H438.8v-27h7a10.13,10.13,0,0,1,6.44,1.89,6.24,6.24,0,0,1,2.41,5.18,6.5,6.5,0,0,1-1.68,4.39,7.24,7.24,0,0,1-4.34,2.4v0.08a8.07,8.07,0,0,1,3.23,1.86,15.1,15.1,0,0,1,3,4.32l3.52,6.91h-4.15Zm-10.26-24.07h-1.25v9.18h1.25a9.06,9.06,0,0,0,4.85-1.09,4.05,4.05,0,0,0,1.72-3.71,3.7,3.7,0,0,0-1.57-3.38,9.64,9.64,0,0,0-5-1" transform="translate(-209 -215)"/>

  <path class="logo-text" d="M467.53,376.23A14.53,14.53,0,0,1,464,366.3a14.28,14.28,0,0,1,3.58-9.94,13.48,13.48,0,0,1,19-.06,14.18,14.18,0,0,1,3.6,10,14.49,14.49,0,0,1-3.54,9.92,13.41,13.41,0,0,1-19.16,0m3-17.76q-2.45,2.83-2.45,7.87t2.51,7.81a9.16,9.16,0,0,0,13.19,0q2.39-2.79,2.39-8.11a10.83,10.83,0,0,0-2.58-7.62,8.4,8.4,0,0,0-6.46-2.81,8.27,8.27,0,0,0-6.6,2.83" transform="translate(-209 -215)"/>

  <path class="logo-text" d="M493.17,384.63q3.41-.39,4.8-2.26a9.18,9.18,0,0,0,1.39-5.51V352.78h3.84v24q0,5.12-2.21,7.7t-6.83,3Z" transform="translate(-209 -215)"/>

  <polygon class="logo-text" points="304.29 164.82 304.29 137.78 319.16 137.78 318.73 140.75 308.13 140.75 308.13 149.54 317.25 149.54 317.25 152.51 308.13 152.51 308.13 161.85 319.51 161.85 319.08 164.82 304.29 164.82"/>

  <path class="logo-text" d="M555.29,357.2a11.49,11.49,0,0,0-2.9-1.15,12.31,12.31,0,0,0-3.05-.41,9.17,9.17,0,0,0-7.1,2.93,10.73,10.73,0,0,0-2.68,7.54,11.21,11.21,0,0,0,2.72,7.91,9.12,9.12,0,0,0,7,3,11.69,11.69,0,0,0,3.7-.57,14,14,0,0,0,3.46-1.78l1.57,2.7a15.77,15.77,0,0,1-4.17,2.19,14.59,14.59,0,0,1-4.75.74,13.26,13.26,0,0,1-9.88-3.83,13.57,13.57,0,0,1-3.78-10,13.88,13.88,0,0,1,3.86-10.12,13.32,13.32,0,0,1,10-3.94,15.78,15.78,0,0,1,3.76.45,14.41,14.41,0,0,1,3.48,1.35Z" transform="translate(-209 -215)"/>

  <polygon class="logo-text" points="366.21 140.83 366.21 164.82 362.42 164.82 362.42 140.83 354.66 140.83 354.66 137.78 374 137.78 373.57 140.83 366.21 140.83"/>
</svg>